<?xml version="1.0" encoding="utf-8"?>
<!-- Generator: Adobe Illustrator 26.0.2, SVG Export Plug-In . SVG Version: 6.00 Build 0)  -->
<svg version="1.1" id="Layer_1" xmlns="http://www.w3.org/2000/svg" xmlns:xlink="http://www.w3.org/1999/xlink" x="0px" y="0px"
	 viewBox="0 0 5680.57 2680.86" style="enable-background:new 0 0 5680.57 2680.86;" xml:space="preserve">
<style type="text/css">
	.st0{fill:#761C26;}
	.st1{fill:#FAF6EB;}
	.st2{fill:none;stroke:#761C26;stroke-width:15;stroke-miterlimit:10;}
</style>
<path class="st0" d="M4629.69,2305.78h-3597.9c-99.44,0-180.06-80.61-180.06-180.06V781.81c0-99.44,80.61-180.06,180.06-180.06
	h3597.9c99.44,0,180.06,80.61,180.06,180.06v1343.9C4809.75,2225.16,4729.13,2305.78,4629.69,2305.78z"/>
<g>
	<path class="st1" d="M2160.91,1601.05l-161.16-245h-124.83v245h-170v-795h341.47c37.05,0,72.22,7.2,105.5,21.58
		c33.28,14.39,62.39,33.89,87.34,58.5s44.81,53.56,59.56,86.88s22.12,69.28,22.12,107.89c0,52.25-13.25,99.75-39.72,142.53
		c-26.48,42.78-61.28,75.91-104.41,99.38l181.58,278.25H2160.91z M2028.24,1197.05c15.89,0,30.84-3.03,44.84-9.09
		s26.12-14.41,36.34-25.03c10.22-10.61,18.34-22.92,24.41-36.95s9.09-29,9.09-44.92c0-15.91-3.03-30.88-9.09-44.91
		c-6.06-14.03-14.19-26.34-24.41-36.97c-10.22-10.61-22.34-18.95-36.34-25.02s-28.95-9.11-44.84-9.11h-153.31v232H2028.24z"/>
	<path class="st1" d="M3267.44,1602.54c-16.66,6.03-38.78,11.12-66.41,15.3c-27.62,4.14-66.39,6.22-116.33,6.22
		c-24.94,0-48.19-4.73-69.72-14.19c-21.53-9.47-40.23-22.33-56.09-38.61c-15.88-16.27-28.53-35.19-37.97-56.77
		c-9.44-21.56-14.16-44.84-14.16-69.83l-1.14-273.61h-118.05v-148h118.05v-184h170v184h140.73l-32.92,148h-107.81v238.75
		c0.75,16.67,6.98,30.88,18.72,42.62c11.72,11.75,26.3,17.62,43.7,17.62c29.5,0,50.88-3.2,64.12-9.64
		c13.23-6.44,22.88-11.17,28.94-14.2L3267.44,1602.54z"/>
	<path class="st1" d="M3966.13,1023.05v578h-171v-45.44c-24.2,20.53-50.67,37.08-79.39,49.62c-28.73,12.53-58.98,18.81-90.73,18.81
		c-43.09,0-83.73-8.14-121.92-24.39c-38.19-16.27-71.27-38.58-99.23-66.95s-50.09-61.47-66.34-99.3
		c-16.25-37.83-24.38-77.92-24.38-120.3c0-43.11,8.31-83.77,24.95-121.98c16.62-38.2,39.12-71.3,67.47-99.3
		c28.34-27.98,61.42-50.11,99.23-66.38c37.81-16.27,77.88-24.41,120.22-24.41c31.75,0,62,6.19,90.73,18.56
		c28.72,12.37,55.19,28.31,79.39,47.81v-44.37H3966.13z M3643.63,1470.05c21.16,0,41.36-4.14,60.62-12.45
		c19.25-8.31,36.06-19.45,50.42-33.44c14.34-13.97,25.67-30.59,33.98-49.86c8.31-19.25,12.47-39.84,12.47-61.75
		s-4.16-42.48-12.47-61.75c-8.31-19.25-19.64-35.88-33.98-49.86c-14.36-13.97-31.17-25.11-50.42-33.42
		c-19.27-8.31-39.47-12.47-60.62-12.47c-21.91,0-42.5,4.16-61.75,12.47c-19.27,8.31-35.89,19.45-49.86,33.42
		c-13.98,13.98-25.12,30.61-33.44,49.86c-8.31,19.27-12.45,39.84-12.45,61.75s4.14,42.5,12.45,61.75
		c8.31,19.27,19.45,35.89,33.44,49.86c13.97,13.98,30.59,25.12,49.86,33.44C3601.13,1465.91,3621.72,1470.05,3643.63,1470.05z"/>
</g>
<g>
	<path class="st1" d="M1233.72,2039.18c0,1.72-0.65,4.31-2.58,5.6h-59.41c-1.94-1.29-2.58-3.87-2.58-5.6c0-3.01,1.51-4.52,4.31-5.38
		c7.75-2.15,9.47-5.81,6.67-13.13l-6.24-17.43h-59.19l-7.32,18.29c-2.8,7.53,0.86,10.55,7.32,12.27c2.8,0.86,4.3,2.37,4.3,5.38
		c0,1.72-0.65,4.31-2.58,5.6h-44.55c-1.94-1.29-2.58-3.87-2.58-5.6c0-3.01,1.51-4.3,4.3-5.38c6.46-2.37,10.98-4.52,13.34-10.76
		l50.37-127.64c1.51-3.66,6.89-6.24,13.35-6.24h3.87c6.46,0,12.48,2.15,14.21,6.24l49.07,128.5c2.37,6.03,5.38,7.75,11.62,9.9
		C1232.22,2034.88,1233.72,2036.17,1233.72,2039.18z M1121.15,1986.23h46.49l-21.96-60.48c-0.65-1.51-1.72-1.51-2.37,0
		L1121.15,1986.23z"/>
	<path class="st1" d="M1387.4,1896.69c0,3.01-1.51,4.52-4.3,5.38c-8.39,2.8-10.12,6.89-10.12,13.34v72.97
		c0,38.1-25.61,59.19-59.41,59.19c-38.31,0-61.99-21.09-61.99-59.62v-72.54c0-6.46-1.72-10.55-10.12-13.34
		c-2.8-0.86-4.3-2.37-4.3-5.38c0-1.72,0.65-4.3,2.58-5.6h57.68c1.94,1.29,2.58,3.87,2.58,5.6c0,3.01-1.51,4.52-4.31,5.38
		c-8.39,2.8-10.12,6.89-10.12,13.34v72.54c0,29.7,12.7,42.62,34.01,42.62c16.79,0,33.58-8.61,33.58-42.62v-72.54
		c0-6.46-1.72-10.55-10.12-13.34c-2.58-0.86-4.3-2.37-4.3-5.38c0-1.72,0.65-4.3,2.58-5.6h43.48
		C1386.76,1892.39,1387.4,1894.97,1387.4,1896.69z"/>
	<path class="st1" d="M1540.87,1934.58c0.65,3.66-2.58,4.95-4.95,4.95c-4.3,0-6.03-1.72-6.89-4.52
		c-6.89-19.16-16.79-26.91-29.49-26.91h-12.92v112.14c0,6.46,3.44,10.76,12.27,13.56c2.8,0.86,4.3,2.37,4.3,5.38
		c0,1.72-0.65,4.31-2.58,5.6h-61.99c-1.94-1.29-2.58-3.87-2.58-5.6c0-3.01,1.51-4.52,4.3-5.38c8.83-2.8,12.27-7.1,12.27-13.56
		V1908.1h-12.91c-12.7,0-22.6,7.75-29.49,26.91c-0.86,2.8-2.58,4.52-6.89,4.52c-2.37,0-5.6-1.29-4.95-4.95l6.24-41.54
		c0.65-4.31,2.8-4.95,4.95-4.95c3.66,0,8.18,3.01,15.28,3.01h89.54c7.1,0,11.62-3.01,15.28-3.01c2.15,0,4.3,0.65,4.95,4.95
		L1540.87,1934.58z"/>
	<path class="st1" d="M1705.74,2039.18c0,1.72-0.65,4.31-2.58,5.6h-57.68c-1.94-1.29-2.58-3.87-2.58-5.6c0-3.01,1.51-4.52,4.3-5.38
		c8.39-2.8,10.12-6.89,10.12-13.56v-44.99h-56.39v44.99c0,6.67,1.72,10.76,10.12,13.56c2.58,0.86,4.3,2.37,4.3,5.38
		c0,1.72-0.65,4.31-2.58,5.6h-57.68c-1.94-1.29-2.8-3.87-2.8-5.6c0-3.01,1.72-4.52,4.52-5.38c8.39-2.8,10.12-6.89,10.12-13.56
		v-104.82c0-6.46-1.72-10.55-10.12-13.34c-2.8-0.86-4.52-2.37-4.52-5.38c0-1.72,0.86-4.3,2.8-5.6h57.68
		c1.94,1.29,2.58,3.87,2.58,5.6c0,3.01-1.72,4.52-4.3,5.38c-8.39,2.8-10.12,6.89-10.12,13.34v42.19h56.39v-42.19
		c0-6.46-1.72-10.55-10.12-13.34c-2.8-0.86-4.3-2.37-4.3-5.38c0-1.72,0.65-4.3,2.58-5.6h57.68c1.94,1.29,2.58,3.87,2.58,5.6
		c0,3.01-1.51,4.52-4.3,5.38c-8.39,2.8-10.12,6.89-10.12,13.34v104.82c0,6.67,1.72,10.76,10.12,13.56
		C1704.23,2034.66,1705.74,2036.17,1705.74,2039.18z"/>
	<path class="st1" d="M1845.64,2001.3l-6.24,41.54c-0.65,4.3-2.8,4.52-4.95,4.52c-3.66,0-8.18-2.58-15.28-2.58h-97.5
		c-1.94-1.29-2.8-3.87-2.8-5.6c0-3.01,1.72-4.52,4.52-5.38c8.39-2.8,10.12-6.89,10.12-13.56v-104.82c0-6.46-1.72-10.55-10.12-13.34
		c-2.8-0.86-4.52-2.37-4.52-5.38c0-1.72,0.86-4.3,2.8-5.6h96.43c7.1,0,11.62-3.01,15.28-3.01c1.94,0,4.09,0.65,4.95,4.95l6.24,41.54
		c0.65,3.66-2.58,4.95-4.95,4.95c-4.3,0-6.03-1.72-7.1-4.52c-6.89-19.16-16.57-26.91-29.27-26.91h-35.73v52.52h28.2
		c9.9,0,10.98-2.37,13.78-11.41c0.86-2.58,2.8-4.52,6.03-4.52c3.87,0,6.24,1.72,6.24,4.3v39.82c0,2.37-2.37,4.09-6.24,4.09
		c-3.23,0-5.17-1.72-6.03-4.52c-2.8-9.04-3.88-11.62-13.78-11.62h-28.2v51.01h36.81c12.7,0,22.6-7.75,29.49-26.91
		c0.86-2.8,2.58-4.52,6.89-4.52C1843.06,1996.35,1846.29,1997.64,1845.64,2001.3z"/>
	<path class="st1" d="M2013.96,1896.69c0,3.01-1.72,4.52-4.3,5.38c-8.39,2.8-10.12,6.89-10.12,13.34v122.26
		c0,7.1-6.46,8.82-12.91,8.82h-6.03c-6.24,0-10.55-2.37-13.13-6.24l-68.66-108.05c-1.08-1.72-1.94-1.08-1.94,0.43v87.6
		c0,6.67,1.72,10.76,10.12,13.56c2.8,0.86,4.31,2.37,4.31,5.38c0,1.72-0.65,4.31-2.58,5.6h-43.26c-1.94-1.29-2.8-3.87-2.8-5.6
		c0-3.01,1.72-4.52,4.52-5.38c8.39-2.8,10.12-6.89,10.12-13.56v-104.82c0-6.46-1.72-10.55-10.12-13.34
		c-2.8-0.86-4.52-2.37-4.52-5.38c0-1.72,0.86-4.3,2.8-5.6h43.26c3.44,0,4.52,1.29,6.67,4.74l62.21,99.66
		c0.86,1.29,2.15,0.86,2.15-0.65v-79.42c0-6.46-1.72-10.55-10.12-13.34c-2.58-0.86-4.31-2.37-4.31-5.38c0-1.72,0.65-4.3,2.58-5.6
		h43.48C2013.31,1892.39,2013.96,1894.97,2013.96,1896.69z"/>
	<path class="st1" d="M2166.78,1934.58c0.65,3.66-2.58,4.95-4.95,4.95c-4.3,0-6.03-1.72-6.89-4.52
		c-6.89-19.16-16.79-26.91-29.49-26.91h-12.92v112.14c0,6.46,3.44,10.76,12.27,13.56c2.8,0.86,4.3,2.37,4.3,5.38
		c0,1.72-0.65,4.31-2.58,5.6h-61.99c-1.94-1.29-2.58-3.87-2.58-5.6c0-3.01,1.51-4.52,4.3-5.38c8.83-2.8,12.27-7.1,12.27-13.56
		V1908.1h-12.91c-12.7,0-22.6,7.75-29.49,26.91c-0.86,2.8-2.58,4.52-6.89,4.52c-2.37,0-5.6-1.29-4.95-4.95l6.24-41.54
		c0.65-4.31,2.8-4.95,4.95-4.95c3.66,0,8.18,3.01,15.28,3.01h89.54c7.1,0,11.62-3.01,15.28-3.01c2.15,0,4.3,0.65,4.95,4.95
		L2166.78,1934.58z"/>
	<path class="st1" d="M2241.25,2039.18c0,1.72-0.65,4.31-2.58,5.6h-57.68c-1.94-1.29-2.8-3.87-2.8-5.6c0-3.01,1.72-4.52,4.52-5.38
		c8.39-2.8,10.12-6.89,10.12-13.56v-104.82c0-6.46-1.72-10.55-10.12-13.34c-2.8-0.86-4.52-2.37-4.52-5.38c0-1.72,0.86-4.3,2.8-5.6
		h57.68c1.94,1.29,2.58,3.87,2.58,5.6c0,3.01-1.72,4.52-4.3,5.38c-8.39,2.8-10.12,6.89-10.12,13.34v104.82
		c0,6.67,1.72,10.76,10.12,13.56C2239.53,2034.66,2241.25,2036.17,2241.25,2039.18z"/>
	<path class="st1" d="M2256.74,1971.17c0-51.23,30.13-82.87,77.49-82.87c31.42,0,47.14,19.8,47.14,39.39
		c0,9.25-4.95,17.22-17.22,17.22c-10.55,0-13.56-6.67-15.28-13.78c-3.23-15.28-10.76-25.83-26.04-25.83
		c-23.25,0-34.44,15.07-34.44,39.6c0,11.41,1.29,24.11,6.67,38.96c7.1,19.37,18.94,35.08,41.76,35.08c13.99,0,27.55-5.6,41.11-20.45
		c1.08-0.86,2.37-1.94,4.74-1.94c2.8,0,4.09,3.66,4.09,6.89s-0.43,6.46-2.15,9.47c-10.76,20.02-32.5,34.44-58.76,34.44
		C2281.93,2047.36,2256.74,2014.22,2256.74,1971.17z"/>
	<path class="st1" d="M2581.54,1934.58c0.65,3.66-2.58,4.95-4.95,4.95c-4.3,0-6.03-1.72-6.89-4.52
		c-6.89-19.16-16.79-26.91-29.49-26.91h-35.08v58.76h27.77c9.69,0,10.76-2.37,13.78-11.62c0.86-2.58,2.58-4.52,6.03-4.52
		c3.88,0,6.03,1.94,6.03,4.31v39.82c0,2.37-2.15,4.09-6.03,4.09c-3.44,0-5.17-1.72-6.03-4.52c-3.01-9.04-4.09-11.41-13.78-11.41
		h-27.77v37.24c0,6.46,3.44,9.25,16.57,13.56c2.58,0.86,4.3,2.37,4.3,5.38c0,1.72-0.65,4.31-2.58,5.6h-64.14
		c-1.94-1.29-2.8-3.87-2.8-5.6c0-3.01,1.72-4.52,4.52-5.38c8.39-2.8,10.12-6.89,10.12-13.56v-104.82c0-6.46-1.72-10.55-10.12-13.34
		c-2.8-0.86-4.52-2.37-4.52-5.38c0-1.72,0.86-4.3,2.8-5.6h95.78c7.1,0,11.62-3.01,15.28-3.01c2.15,0,4.3,0.65,4.95,4.95
		L2581.54,1934.58z"/>
	<path class="st1" d="M2721.87,2001.3l-6.24,41.54c-0.65,4.3-2.8,4.52-4.74,4.52c-3.88,0-8.39-2.58-15.28-2.58h-95.78
		c-1.94-1.29-2.8-3.87-2.8-5.6c0-3.01,1.72-4.52,4.52-5.38c8.39-2.8,10.12-6.89,10.12-13.56v-104.82c0-6.46-1.72-10.55-10.12-13.34
		c-2.8-0.86-4.52-2.37-4.52-5.38c0-1.72,0.86-4.3,2.8-5.6h57.68c1.94,1.29,2.58,3.87,2.58,5.6c0,3.01-1.72,4.52-4.3,5.38
		c-8.39,2.8-10.12,6.89-10.12,13.34v112.36h35.08c12.7,0,22.38-7.75,29.27-26.91c1.08-2.8,2.8-4.52,7.1-4.52
		C2719.29,1996.35,2722.52,1997.64,2721.87,2001.3z"/>
	<path class="st1" d="M2738.44,1969.45c0-48.86,29.49-81.15,76.19-81.15c43.05,0,69.74,30.99,69.74,77.92
		c0,49.29-29.49,81.36-76.2,81.36C2765.13,2047.58,2738.44,2016.8,2738.44,1969.45z M2852.52,1990.11c0-35.51-15.71-84.8-45.42-84.8
		c-24.32,0-36.81,15.28-36.81,40.25c0,35.51,15.71,85.02,45.63,85.02C2840.03,2030.57,2852.52,2015.08,2852.52,1990.11z"/>
	<path class="st1" d="M3049.67,1896.69c0,3.01-1.51,4.52-4.3,5.38c-8.39,2.8-10.12,6.89-10.12,13.34v72.97
		c0,38.1-25.61,59.19-59.41,59.19c-38.31,0-61.99-21.09-61.99-59.62v-72.54c0-6.46-1.72-10.55-10.12-13.34
		c-2.8-0.86-4.3-2.37-4.3-5.38c0-1.72,0.65-4.3,2.58-5.6h57.68c1.94,1.29,2.58,3.87,2.58,5.6c0,3.01-1.51,4.52-4.31,5.38
		c-8.39,2.8-10.12,6.89-10.12,13.34v72.54c0,29.7,12.7,42.62,34.01,42.62c16.79,0,33.58-8.61,33.58-42.62v-72.54
		c0-6.46-1.72-10.55-10.12-13.34c-2.58-0.86-4.3-2.37-4.3-5.38c0-1.72,0.65-4.3,2.58-5.6h43.48
		C3049.03,1892.39,3049.67,1894.97,3049.67,1896.69z"/>
	<path class="st1" d="M3206.58,2039.4c0,1.94-0.65,4.09-2.58,5.38h-32.5c-7.1,0-10.98-2.37-13.78-8.18l-23.25-48.43h-2.8h-20.88
		v32.07c0,6.46,2.15,10.76,10.55,13.56c2.8,0.86,4.52,2.37,4.52,5.38c0,1.72-0.86,4.31-2.8,5.6h-58.12c-1.94-1.29-2.8-3.87-2.8-5.6
		c0-3.01,1.72-4.52,4.52-5.38c8.39-2.8,10.12-6.89,10.12-13.56v-104.82c0-6.46-1.72-10.55-10.12-13.34
		c-2.8-0.86-4.52-2.37-4.52-5.38c0-1.72,0.86-4.3,2.8-5.6h57.68c47.78,0,73.4,19.8,73.4,48.21c0,19.59-12.05,34.44-30.35,42.4
		l23.68,41.97c2.15,4.09,7.32,7.53,11.19,9.04C3204.65,2034.88,3206.58,2036.82,3206.58,2039.4z M3134.91,1970.95
		c18.08,0,27.55-9.47,27.55-26.26c0-17.22-16.14-36.59-39.17-36.59h-12.48v62.85H3134.91z"/>
	<path class="st1" d="M3411.7,1934.58c0.65,3.66-2.58,4.95-4.95,4.95c-4.3,0-6.03-1.72-6.89-4.52
		c-6.89-19.16-16.79-26.91-29.49-26.91h-12.92v112.14c0,6.46,3.44,10.76,12.27,13.56c2.8,0.86,4.3,2.37,4.3,5.38
		c0,1.72-0.65,4.31-2.58,5.6h-61.99c-1.94-1.29-2.58-3.87-2.58-5.6c0-3.01,1.51-4.52,4.3-5.38c8.83-2.8,12.27-7.1,12.27-13.56
		V1908.1h-12.91c-12.7,0-22.6,7.75-29.49,26.91c-0.86,2.8-2.58,4.52-6.89,4.52c-2.37,0-5.6-1.29-4.95-4.95l6.24-41.54
		c0.65-4.31,2.8-4.95,4.95-4.95c3.66,0,8.18,3.01,15.28,3.01h89.54c7.1,0,11.62-3.01,15.28-3.01c2.15,0,4.3,0.65,4.95,4.95
		L3411.7,1934.58z"/>
	<path class="st1" d="M3426.98,1969.45c0-48.86,29.49-81.15,76.19-81.15c43.05,0,69.74,30.99,69.74,77.92
		c0,49.29-29.49,81.36-76.2,81.36C3453.67,2047.58,3426.98,2016.8,3426.98,1969.45z M3541.06,1990.11c0-35.51-15.71-84.8-45.42-84.8
		c-24.32,0-36.81,15.28-36.81,40.25c0,35.51,15.71,85.02,45.63,85.02C3528.57,2030.57,3541.06,2015.08,3541.06,1990.11z"/>
	<path class="st1" d="M3732.83,2039.4c0,1.94-0.65,4.09-2.58,5.38h-32.5c-7.1,0-10.98-2.37-13.78-8.18l-23.25-48.43h-2.8h-20.88
		v32.07c0,6.46,2.15,10.76,10.55,13.56c2.8,0.86,4.52,2.37,4.52,5.38c0,1.72-0.86,4.31-2.8,5.6h-58.12c-1.94-1.29-2.8-3.87-2.8-5.6
		c0-3.01,1.72-4.52,4.52-5.38c8.39-2.8,10.12-6.89,10.12-13.56v-104.82c0-6.46-1.72-10.55-10.12-13.34
		c-2.8-0.86-4.52-2.37-4.52-5.38c0-1.72,0.86-4.3,2.8-5.6h57.68c47.78,0,73.4,19.8,73.4,48.21c0,19.59-12.05,34.44-30.35,42.4
		l23.68,41.97c2.15,4.09,7.32,7.53,11.19,9.04C3730.9,2034.88,3732.83,2036.82,3732.83,2039.4z M3661.16,1970.95
		c18.08,0,27.55-9.47,27.55-26.26c0-17.22-16.14-36.59-39.17-36.59h-12.48v62.85H3661.16z"/>
	<path class="st1" d="M3884.15,1934.58c0.65,3.66-2.58,4.95-4.95,4.95c-4.3,0-6.03-1.72-6.89-4.52
		c-6.89-19.16-16.79-26.91-29.49-26.91h-12.92v112.14c0,6.46,3.44,10.76,12.27,13.56c2.8,0.86,4.3,2.37,4.3,5.38
		c0,1.72-0.65,4.31-2.58,5.6h-61.99c-1.94-1.29-2.58-3.87-2.58-5.6c0-3.01,1.51-4.52,4.3-5.38c8.83-2.8,12.27-7.1,12.27-13.56
		V1908.1h-12.91c-12.7,0-22.6,7.75-29.49,26.91c-0.86,2.8-2.58,4.52-6.89,4.52c-2.37,0-5.6-1.29-4.95-4.95l6.24-41.54
		c0.65-4.31,2.8-4.95,4.95-4.95c3.66,0,8.18,3.01,15.28,3.01h89.54c7.1,0,11.62-3.01,15.28-3.01c2.15,0,4.3,0.65,4.95,4.95
		L3884.15,1934.58z"/>
	<path class="st1" d="M3958.62,2039.18c0,1.72-0.65,4.31-2.58,5.6h-57.68c-1.94-1.29-2.8-3.87-2.8-5.6c0-3.01,1.72-4.52,4.52-5.38
		c8.39-2.8,10.12-6.89,10.12-13.56v-104.82c0-6.46-1.72-10.55-10.12-13.34c-2.8-0.86-4.52-2.37-4.52-5.38c0-1.72,0.86-4.3,2.8-5.6
		h57.68c1.94,1.29,2.58,3.87,2.58,5.6c0,3.01-1.72,4.52-4.3,5.38c-8.39,2.8-10.12,6.89-10.12,13.34v104.82
		c0,6.67,1.72,10.76,10.12,13.56C3956.9,2034.66,3958.62,2036.17,3958.62,2039.18z"/>
	<path class="st1" d="M4096.37,2001.3l-6.24,41.54c-0.65,4.3-2.8,4.52-4.74,4.52c-3.88,0-8.39-2.58-15.28-2.58h-95.78
		c-1.94-1.29-2.8-3.87-2.8-5.6c0-3.01,1.72-4.52,4.52-5.38c8.39-2.8,10.12-6.89,10.12-13.56v-104.82c0-6.46-1.72-10.55-10.12-13.34
		c-2.8-0.86-4.52-2.37-4.52-5.38c0-1.72,0.86-4.3,2.8-5.6h57.68c1.94,1.29,2.58,3.87,2.58,5.6c0,3.01-1.72,4.52-4.3,5.38
		c-8.39,2.8-10.12,6.89-10.12,13.34v112.36h35.08c12.7,0,22.38-7.75,29.27-26.91c1.08-2.8,2.8-4.52,7.1-4.52
		C4093.79,1996.35,4097.02,1997.64,4096.37,2001.3z"/>
	<path class="st1" d="M4235.2,2001.3l-6.24,41.54c-0.65,4.3-2.8,4.52-4.74,4.52c-3.88,0-8.39-2.58-15.28-2.58h-95.78
		c-1.94-1.29-2.8-3.87-2.8-5.6c0-3.01,1.72-4.52,4.52-5.38c8.39-2.8,10.12-6.89,10.12-13.56v-104.82c0-6.46-1.72-10.55-10.12-13.34
		c-2.8-0.86-4.52-2.37-4.52-5.38c0-1.72,0.86-4.3,2.8-5.6h57.68c1.94,1.29,2.58,3.87,2.58,5.6c0,3.01-1.72,4.52-4.3,5.38
		c-8.39,2.8-10.12,6.89-10.12,13.34v112.36h35.08c12.7,0,22.38-7.75,29.27-26.91c1.08-2.8,2.8-4.52,7.1-4.52
		C4232.61,1996.35,4235.84,1997.64,4235.2,2001.3z"/>
	<path class="st1" d="M4409.54,2039.18c0,1.72-0.65,4.31-2.58,5.6h-59.41c-1.94-1.29-2.58-3.87-2.58-5.6c0-3.01,1.51-4.52,4.31-5.38
		c7.75-2.15,9.47-5.81,6.67-13.13l-6.24-17.43h-59.19l-7.32,18.29c-2.8,7.53,0.86,10.55,7.32,12.27c2.8,0.86,4.3,2.37,4.3,5.38
		c0,1.72-0.65,4.31-2.58,5.6h-44.55c-1.94-1.29-2.58-3.87-2.58-5.6c0-3.01,1.51-4.3,4.3-5.38c6.46-2.37,10.98-4.52,13.34-10.76
		l50.37-127.64c1.51-3.66,6.89-6.24,13.35-6.24h3.87c6.46,0,12.48,2.15,14.21,6.24l49.07,128.5c2.37,6.03,5.38,7.75,11.62,9.9
		C4408.03,2034.88,4409.54,2036.17,4409.54,2039.18z M4296.97,1986.23h46.49l-21.96-60.48c-0.65-1.51-1.72-1.51-2.37,0
		L4296.97,1986.23z"/>
	<path class="st1" d="M4453.88,2043.06c-3.23-1.29-5.6-2.15-7.1-2.15c-1.08,0-2.15,0.43-3.23,1.29c-2.58,1.72-6.67,3.87-9.47,3.87
		c-3.87,0-4.95-4.52-5.38-7.32l-7.53-42.4c-0.86-4.09,2.37-6.03,6.46-6.03c4.52,0,6.03,2.15,7.1,4.74
		c11.41,28.2,22.17,37.45,41.11,37.45c20.02,0,27.77-9.9,27.77-22.17c0-16.14-19.8-22.82-36.81-28.2
		c-16.14-4.95-46.28-16.79-46.28-48c0-23.89,20.66-45.85,51.66-45.85c9.47,0,17.87,1.72,23.89,3.87c3.01,1.08,4.95,1.72,7.1,1.72
		c1.29,0,2.58-0.43,4.09-1.51c2.15-1.51,5.6-3.23,8.61-3.23c3.23,0,4.74,3.66,5.38,7.32l7.1,40.68c0.86,4.74-4.09,6.03-6.89,6.03
		c-3.01,0-4.95-1.08-6.46-4.74c-10.33-26.69-19.59-34.44-36.38-34.44c-15.93,0-27.55,9.04-27.55,21.31
		c0,16.36,20.88,23.46,37.45,28.41c20.45,6.24,46.06,15.28,46.06,46.49c0,28.84-22.17,47.35-55.32,47.35
		C4471.09,2047.58,4460.98,2046.07,4453.88,2043.06z"/>
</g>
<g>
	<path class="st1" d="M2570.86,823.01c19.67,34.25,3.65,66.55-7.22,97.64c12.2,2.71,25.15,3.74,36.08,8.92
		c4.38,2.08,4.3,13.29,6.07,19.67c-45.21,3.46-88.8,6.79-132.94,10.17c-5.39-21.47-1.69-25.07,37.23-31.98
		c-14.49-30.99-35.11-60.67-19.23-97.98c3.77-4.33,7.53-8.66,11.3-12.99c18.07-11.85,36.75-13.09,56.01-4.51
		C2562.39,815.64,2566.63,819.32,2570.86,823.01z"/>
	<path class="st1" d="M2538.5,1671.78c-14.14-29.26-13.32-40.16,7.09-97.78c-12-2.55-24.9-3.44-35.8-8.52
		c-4.41-2.05-4.43-13.25-6.27-19.65c45.29-3.31,89.11-6.52,133.31-9.75c3.96,21.87,2.53,23.22-37.62,31.46
		c14.77,30.82,35.06,60.46,19.3,97.79c-3.77,4.33-7.53,8.66-11.3,12.99c-18.08,11.57-36.74,13.35-56,4.51
		C2546.96,1679.15,2542.73,1675.47,2538.5,1671.78z"/>
	<path class="st1" d="M2466.88,996.56c40.38-3.19,104.57-6.74,145.81-9.99c9.89,169.75,19.87,341.14,29.8,511.51
		c-40.4,3.26-104.59,6.89-145.87,10.23C2486.75,1338.48,2476.79,1167.09,2466.88,996.56z"/>
</g>
<g>
	<path class="st0" d="M1967.5,383.55c-7.13-25.99-23-46.92-51.75-46.92H1910v138.92c0,12.65,10.35,23,23,23v5.75h-92v-5.75
		c12.65,0,23-10.35,23-23V336.63h-5.75c-28.75,0-44.62,20.93-51.75,46.92h-5.75c1.84-17.02,4.14-46.69,5.75-63.25h161
		c1.61,16.56,3.91,46.23,5.75,63.25H1967.5z"/>
	<path class="st0" d="M2178.87,412.07c0,48.3-30.36,95.68-92.46,95.68s-91.54-46.92-91.54-95.22c0-48.3,30.13-95.68,92.23-95.68
		C2149.2,316.85,2178.87,363.77,2178.87,412.07z M2132.87,412.76c0-40.48-11.96-79.81-46.92-79.81c-34.73,0-45.08,38.64-45.08,79.12
		c0,40.48,10.58,79.81,45.54,79.81C2121.14,491.88,2132.87,453.24,2132.87,412.76z"/>
	<path class="st0" d="M2348.84,533.28c-14.49,0-30.36-5.98-41.17-28.75c-10.81-22.54-14.03-78.89-44.85-87.63v58.65
		c0,12.65,10.35,23,23,23v5.75h-92v-5.75c12.65,0,23-10.35,23-23v-126.5c0-12.65-10.35-23-23-23v-5.75h98.21
		c37.72,0,63.02,18.17,62.79,47.15c0,11.96-6.44,35.19-38.18,44.62c21.39,20.47,20.24,72.68,38.64,97.06
		c-1.15-18.86,11.04-22.31,19.09-20.24c12.42,3.68,15.64,17.94,7.36,29.44C2377.13,524.31,2366.32,533.28,2348.84,533.28z
		 M2262.82,404.25c28.98,0,46.23-11.96,46.23-35.42c0-24.84-22.31-31.97-46.23-31.97V404.25z"/>
	<path class="st0" d="M2555.38,383.55c-7.13-25.99-23-46.92-51.75-46.92h-5.75v138.92c0,12.65,10.35,23,23,23v5.75h-92v-5.75
		c12.65,0,23-10.35,23-23V336.63h-5.75c-28.75,0-44.62,20.93-51.75,46.92h-5.75c1.84-17.02,4.14-46.69,5.75-63.25h161
		c1.61,16.56,3.91,46.23,5.75,63.25H2555.38z"/>
	<path class="st0" d="M2671.3,326.05c-12.65,0-23,10.35-23,23v126.5c0,12.65,10.35,23,23,23v5.75h-92v-5.75c12.65,0,23-10.35,23-23
		v-126.5c0-12.65-10.35-23-23-23v-5.75h92V326.05z"/>
	<path class="st0" d="M2857.13,441.05c-1.84,17.02-4.14,46.69-5.75,63.25h-161v-5.75c12.65,0,23-10.35,23-23v-126.5
		c0-12.65-10.35-23-23-23v-5.75h92v5.75c-12.65,0-23,10.35-23,23v138.92h40.25c28.75,0,44.62-20.93,51.75-46.92H2857.13z"/>
	<path class="st0" d="M3037.45,441.05c-1.84,17.02-4.14,46.69-5.75,63.25h-161v-5.75c12.65,0,23-10.35,23-23v-126.5
		c0-12.65-10.35-23-23-23v-5.75h92v5.75c-12.65,0-23,10.35-23,23v138.92h40.25c28.75,0,44.62-20.93,51.75-46.92H3037.45z"/>
	<path class="st0" d="M3212.25,441.05c-1.84,17.02-4.14,46.69-5.75,63.25h-155.48v-5.75c12.65,0,23-10.35,23-23v-126.5
		c0-12.65-10.35-23-23-23v-5.75h151.34c1.61,16.56,3.91,46.23,5.75,63.25h-5.75c-7.13-25.99-23-46.92-51.75-46.92h-30.59v69.92
		h23.23c12.65,0,23-10.35,23-23h5.75v59.8h-5.75c0-12.65-10.35-23-23-23h-23.23v67.62h34.73c28.75,0,44.62-20.93,51.75-46.92
		H3212.25z"/>
	<path class="st0" d="M3390.04,533.28c-14.49,0-30.36-5.98-41.17-28.75c-10.81-22.54-14.03-78.89-44.85-87.63v58.65
		c0,12.65,10.35,23,23,23v5.75h-92v-5.75c12.65,0,23-10.35,23-23v-126.5c0-12.65-10.35-23-23-23v-5.75h98.21
		c37.72,0,63.02,18.17,62.79,47.15c0,11.96-6.44,35.19-38.18,44.62c21.39,20.47,20.24,72.68,38.64,97.06
		c-1.15-18.86,11.04-22.31,19.09-20.24c12.42,3.68,15.64,17.94,7.36,29.44C3418.33,524.31,3407.52,533.28,3390.04,533.28z
		 M3304.02,404.25c28.98,0,46.23-11.96,46.23-35.42c0-24.84-22.31-31.97-46.23-31.97V404.25z"/>
	<path class="st0" d="M3535.63,326.05c-12.65,0-23,10.35-23,23v126.5c0,12.65,10.35,23,23,23v5.75h-92v-5.75c12.65,0,23-10.35,23-23
		v-126.5c0-12.65-10.35-23-23-23v-5.75h92V326.05z"/>
	<path class="st0" d="M3727.21,475.55c4.37,12.65,18.17,23,31.05,23v5.75l-92-0.23v-5.52c12.65-0.23,19.32-10.35,14.95-23
		l-13.57-40.02h-50.6l-16.1,40.02c-5.06,12.42,0.92,22.77,13.34,23v5.75h-59.8v-5.75c12.65,0,27.6-10.35,32.66-23l62.56-155.25
		h24.38L3727.21,475.55z M3621.64,424.03h42.09l-19.32-56.12L3621.64,424.03z"/>
</g>
<path class="st2" d="M3955.38,429.5h799.5c116.32,0,210.62,93.07,210.62,207.88v1626.2c0,114.81-94.3,207.88-210.62,207.88H896.18
	c-116.32,0-210.62-93.07-210.62-207.88V637.38c0-114.81,94.3-207.88,210.62-207.88h767.55"/>
</svg>
